<svg xmlns="http://www.w3.org/2000/svg" viewBox="0 0 64 64" fill="none">
  <circle cx="32" cy="32" r="30" fill="#2563EB" opacity="0.1"/>
  <path d="M32 8C18.7 8 8 18.7 8 32s10.7 24 24 24 24-10.7 24-24S45.3 8 32 8z" fill="none" stroke="#2563EB" stroke-width="2"/>
  <path d="M32 16c-4 0-7.5 2-9.5 5-1.5 2.3-2.5 5.2-2.5 8.5 0 6.5 4 12 9.5 14.5.8.4 1.7.6 2.5.6s1.7-.2 2.5-.6C40 41.5 44 36 44 29.5c0-3.3-1-6.2-2.5-8.5C39.5 18 36 16 32 16z" fill="#22C55E" opacity="0.6"/>
  <path d="M32 16c0 8-4 14-4 14s8-2 12-8" stroke="#22C55E" stroke-width="2" fill="none" stroke-linecap="round"/>
  <path d="M28 26c0 0 2-2 4-2s4 2 4 2" stroke="#2563EB" stroke-width="1.5" fill="none" stroke-linecap="round"/>
  <circle cx="32" cy="32" r="3" fill="#2563EB"/>
</svg>
